<svg width="66" height="13" viewBox="0 0 66 13" fill="none" xmlns="http://www.w3.org/2000/svg">
<path d="M0.298433 9.34562V4.06799C0.298433 2.15383 1.52897 0.786571 4.12676 0.786571C6.23234 0.786571 7.43553 1.68896 7.81836 3.05622H8.91217V0.923297H11.6467V12.4903H8.91217V10.0976H7.88672C7.58593 11.6016 6.36907 12.627 4.12676 12.627C1.52897 12.627 0.298433 11.2598 0.298433 9.34562ZM4.12676 1.22409C4.12676 5.24384 2.23994 6.65211 0.585558 6.72048C2.23994 6.78884 4.12676 8.18345 4.12676 12.1895C4.12676 8.18345 5.99991 6.77517 7.65429 6.70681C5.99991 6.63844 4.12676 5.24384 4.12676 1.22409ZM7.95509 5.24384V7.90999H8.91217V5.24384H7.95509ZM12.8046 2.93317V1.08737H14.2676V0.30803H17.1388V1.08737H18.6018V2.93317H12.8046ZM19.0119 7.67756V0.923297H21.391V3.06989H21.9789V0.923297H24.3579V7.67756H21.9789V5.39424H21.391V7.67756H19.0119ZM18.6018 5.44893C18.6018 6.99393 17.6994 7.67756 16.3458 7.67756H15.0606C13.707 7.67756 12.8046 6.99393 12.8046 5.44893C12.8046 3.90392 13.707 3.22029 15.0606 3.22029H16.3458C17.6994 3.22029 18.6018 3.90392 18.6018 5.44893ZM15.7032 3.43905C15.6622 4.53286 15.0469 5.40791 13.4472 5.44893C15.0469 5.48994 15.6622 6.37866 15.7032 7.47247C15.7305 6.37866 16.3458 5.48994 17.9455 5.44893C16.3458 5.40791 15.7305 4.53286 15.7032 3.43905ZM24.4263 10.289C24.4263 11.793 23.4419 12.4903 21.8012 12.4903H15.5664C13.9257 12.4903 12.9413 11.793 12.9413 10.289C12.9413 8.78504 13.9257 8.08774 15.5664 8.08774H21.8012C23.4419 8.08774 24.4263 8.78504 24.4263 10.289ZM18.6838 8.34752C18.6428 9.61907 17.7541 10.2617 14.2265 10.289C17.7541 10.33 18.6428 10.959 18.6838 12.2305C18.7248 10.959 19.5999 10.33 23.1411 10.289C19.5999 10.2617 18.7248 9.61907 18.6838 8.34752ZM25.7209 5.65401V4.06799C25.7209 2.15383 27.0198 0.786571 29.6176 0.786571C32.2154 0.786571 33.5143 2.15383 33.5143 4.06799V5.65401C33.5143 7.56818 32.2154 8.93544 29.6176 8.93544C27.0198 8.93544 25.7209 7.56818 25.7209 5.65401ZM34.3346 12.4903V0.923297H37.0692V12.4903H34.3346ZM29.6176 1.51122C29.5492 3.38436 28.264 4.80631 26.6917 4.87468C28.264 4.94304 29.5492 6.33764 29.6176 8.21079C29.6723 6.33764 30.9575 4.92937 32.5435 4.861C30.9575 4.79264 29.6723 3.38436 29.6176 1.51122ZM25.5842 12.4903V10.3711H33.7877V12.4903H25.5842ZM41.5566 9.34562V4.06799C41.5566 2.15383 42.7871 0.786571 45.3849 0.786571C47.9827 0.786571 49.2132 2.15383 49.2132 4.06799V9.34562C49.2132 11.2598 47.9827 12.627 45.3849 12.627C42.7871 12.627 41.5566 11.2598 41.5566 9.34562ZM50.1703 12.4903V0.923297H52.9048V12.4903H50.1703ZM45.3849 1.22409C45.3849 5.24384 43.4981 6.65211 41.8437 6.72048C43.4981 6.78884 45.3849 8.18345 45.3849 12.1895C45.3849 8.18345 47.258 6.77517 48.9124 6.70681C47.258 6.63844 45.3849 5.24384 45.3849 1.22409ZM65.6844 3.84923C65.6844 5.62667 64.6316 6.77517 62.7175 6.77517H57.1664C55.2522 6.77517 54.1994 5.62667 54.1994 3.84923C54.1994 2.07179 55.2522 0.923297 57.1664 0.923297H62.7175C64.6316 0.923297 65.6844 2.07179 65.6844 3.84923ZM59.9419 6.63844C59.9419 5.29853 61.692 3.9176 65.1102 3.84923C61.692 3.78087 59.9419 2.41361 59.9419 1.06002C59.9419 2.41361 58.1782 3.78087 54.76 3.84923C58.1782 3.9176 59.9419 5.29853 59.9419 6.63844ZM54.2678 9.52336V7.40411H65.6161V9.52336H63.8386V12.4903H61.1041V9.52336H58.7798V12.4903H56.0452V9.52336H54.2678Z" fill="#21B69C"/>
</svg>
