<svg width="25" height="18" viewBox="0 0 25 18" fill="none" xmlns="http://www.w3.org/2000/svg">
<path d="M21.9525 3.24453C22.4004 3.2896 22.5585 3.38797 22.6023 3.4223C22.604 3.47791 22.5892 3.66359 22.3597 4.05074C22.0559 4.56301 21.4951 5.21134 20.671 5.95066C19.034 7.41929 16.531 9.09398 13.5485 10.6001C10.566 12.1063 7.73243 13.1265 5.5788 13.5721C4.49465 13.7965 3.64002 13.8629 3.04746 13.8033C2.59961 13.7582 2.44145 13.6598 2.39766 13.6255C2.39603 13.5699 2.41075 13.3842 2.64032 12.9971C2.94407 12.4848 3.50486 11.8365 4.32895 11.0972C5.96597 9.62852 8.46903 7.95383 11.4515 6.44769C14.434 4.94154 17.2676 3.92129 19.4212 3.47567C20.5054 3.25134 21.36 3.18489 21.9525 3.24453Z" stroke="#FFE194" stroke-width="2"/>
<ellipse cx="12.5405" cy="8.73869" rx="7.11467" ry="7.11467" fill="#FFE194"/>
<path fill-rule="evenodd" clip-rule="evenodd" d="M10.1719 6.02853C12.6028 6.02678 14.573 4.05557 14.573 1.62421C14.573 1.62415 14.573 1.62409 14.573 1.62402H14.5762C14.5762 1.62409 14.5762 1.62415 14.5762 1.62421C14.5762 4.05665 16.5481 6.02853 18.9805 6.02853C18.9805 6.02853 18.9805 6.02853 18.9805 6.02853V6.02889C18.9805 6.02889 18.9805 6.02889 18.9805 6.02889C16.5482 6.02889 14.5765 8.00048 14.5762 10.4327H14.573C14.5727 8.00155 12.6026 6.03064 10.1719 6.02889V6.02853Z" fill="#FCFCFC"/>
</svg>
