<svg width="40" height="40" viewBox="0 0 40 40" fill="none" xmlns="http://www.w3.org/2000/svg">
<circle cx="20" cy="20" r="20" fill="white"/>
<path d="M32.3083 14.0137C32.3157 14.0284 32.4114 14.2758 32.0036 14.9635C31.6244 15.603 30.9348 16.3967 29.9388 17.2902C27.9579 19.0674 24.9384 21.0863 21.3483 22.8993C17.7583 24.7122 14.3411 25.9438 11.7351 26.483C10.4247 26.7541 9.37669 26.838 8.63692 26.7635C7.84147 26.6835 7.69915 26.4595 7.69174 26.4449C7.68433 26.4302 7.5886 26.1827 7.99636 25.4951C8.37557 24.8555 9.06515 24.0619 10.0612 23.1683C12.0421 21.3912 15.0616 19.3722 18.6517 17.5593C22.2417 15.7463 25.6589 14.5148 28.2649 13.9755C29.5753 13.7044 30.6233 13.6206 31.3631 13.695C32.1585 13.7751 32.3008 13.999 32.3083 14.0137Z" stroke="#FFE194" stroke-width="2"/>
<circle cx="20.0454" cy="20.4868" r="8.5376" fill="#FFE194"/>
<path fill-rule="evenodd" clip-rule="evenodd" d="M17.2031 17.2348C20.1198 17.2322 22.4835 14.8669 22.4835 11.9496C22.4835 11.9495 22.4835 11.9494 22.4835 11.9492H22.4863C22.4863 11.9494 22.4863 11.9495 22.4863 11.9496C22.4863 14.8685 24.8526 17.2348 27.7715 17.2348C27.7722 17.2348 27.7728 17.2348 27.7735 17.2348V17.2351C27.7728 17.2351 27.7722 17.2351 27.7715 17.2351C24.8528 17.2351 22.4867 19.601 22.4863 22.5196H22.4835C22.4831 19.6026 20.1196 17.2377 17.2031 17.2351V17.2348Z" fill="#FCFCFC"/>
</svg>
