<svg width="798" height="583" viewBox="0 0 798 583" fill="none" xmlns="http://www.w3.org/2000/svg">
<g filter="url(#filter0_f_1401_8755)">
<path d="M116.299 411.678C114.273 407.73 113.048 403.755 112.624 399.752C112.162 395.674 112.617 391.795 113.991 388.117C115.401 384.324 117.768 380.712 121.09 377.28C124.413 373.849 128.769 370.75 134.159 367.984C142.966 363.464 150.771 361.665 157.574 362.586C164.414 363.392 170.092 366.233 174.608 371.109L183.719 366.433L174.602 348.668L197.378 336.98L246.819 433.322L224.043 445.011L213.816 425.082L205.275 429.465C207.218 436.428 206.601 443.171 203.426 449.692C200.326 456.174 194.107 461.812 184.769 466.604C179.379 469.37 174.321 471.102 169.596 471.801C164.871 472.499 160.557 472.315 156.653 471.249C152.864 470.221 149.467 468.367 146.462 465.689C143.457 463.011 140.922 459.66 138.857 455.636L116.299 411.678ZM136.029 371.628C140.315 379.979 143.027 387.507 144.166 394.212C145.381 400.878 145.519 406.754 144.58 411.84C143.602 416.849 141.758 421.105 139.047 424.606C136.373 427.993 133.366 430.639 130.028 432.544C133.522 430.942 137.444 430.081 141.793 429.959C146.18 429.722 150.693 430.667 155.333 432.794C159.974 434.92 164.647 438.421 169.354 443.294C174.098 448.053 178.613 454.608 182.899 462.96C178.613 454.608 175.883 447.138 174.707 440.548C173.568 433.843 173.487 427.985 174.465 422.976C175.404 417.89 177.211 413.654 179.885 410.267C182.52 406.805 185.507 404.121 188.845 402.216C185.351 403.817 181.449 404.717 177.138 404.915C172.789 405.037 168.294 404.034 163.654 401.908C159.013 399.781 154.302 396.3 149.519 391.465C144.812 386.592 140.315 379.979 136.029 371.628ZM196.493 410.952L204.465 406.861L193.069 384.654L185.097 388.745L196.493 410.952ZM207.723 333.397L219.908 327.144L216.577 320.653L240.492 308.38L243.823 314.872L256.008 308.618L263.898 323.992L215.613 348.771L207.723 333.397ZM258.724 305.499L278.539 295.33L287.714 313.209L292.611 310.696L283.436 292.817L303.251 282.648L332.12 338.905L312.305 349.074L302.546 330.056L297.649 332.569L307.408 351.587L287.593 361.755L258.724 305.499ZM274.651 344.946C277.963 351.399 278.67 356.983 276.773 361.697C274.876 366.411 271.081 370.229 265.387 373.151L254.682 378.645C248.988 381.567 243.673 382.424 238.737 381.216C233.801 380.009 229.678 376.178 226.366 369.725C223.054 363.272 222.347 357.688 224.244 352.974C226.141 348.26 229.936 344.442 235.63 341.52L246.335 336.026C252.029 333.104 257.344 332.247 262.28 333.455C267.216 334.663 271.339 338.493 274.651 344.946ZM241.918 340.595C243.011 342.912 243.703 345.29 243.996 347.729C244.326 350.054 244.121 352.365 243.382 354.663C242.68 356.845 241.386 358.996 239.5 361.115C237.614 363.234 235.02 365.188 231.718 366.978C235.098 365.34 238.198 364.372 241.019 364.076C243.84 363.779 246.361 364.02 248.583 364.798C250.881 365.537 252.897 366.756 254.632 368.455C256.405 370.04 257.913 371.951 259.158 374.19C258.065 371.873 257.354 369.553 257.024 367.228C256.655 364.828 256.803 362.498 257.466 360.239C258.205 357.942 259.518 355.734 261.404 353.615C263.29 351.496 265.883 349.541 269.185 347.751C265.805 349.39 262.705 350.357 259.884 350.654C257.063 350.951 254.523 350.767 252.265 350.104C250.043 349.326 248.084 348.125 246.388 346.502C244.652 344.803 243.162 342.834 241.918 340.595ZM343.852 360.364C347.086 366.665 347.526 372.29 345.174 377.238C342.897 382.147 338.305 386.374 331.396 389.919L279.467 416.568C272.558 420.114 266.408 421.399 261.017 420.426C255.701 419.413 251.427 415.756 248.193 409.454C244.959 403.153 244.48 397.548 246.757 392.639C249.109 387.691 253.74 383.444 260.649 379.899L312.578 353.25C319.487 349.704 325.599 348.438 330.914 349.451C336.306 350.425 340.618 354.063 343.852 360.364ZM287.724 368.738C289.012 371.434 289.592 374.061 289.467 376.62C289.341 379.178 288.224 381.861 286.116 384.669C284.084 387.439 280.852 390.392 276.42 393.53C272.064 396.629 266.223 400.106 258.898 403.961C266.301 400.257 272.551 397.578 277.647 395.921C282.781 394.15 287.065 393.246 290.499 393.21C293.971 393.06 296.782 393.679 298.934 395.068C301.086 396.458 302.881 398.462 304.321 401.08C303.033 398.384 302.414 395.776 302.464 393.257C302.59 390.698 303.726 388.053 305.873 385.321C307.981 382.513 311.213 379.559 315.569 376.461C319.963 373.247 325.822 369.712 333.147 365.857C325.744 369.561 319.476 372.298 314.342 374.069C309.284 375.801 305 376.705 301.49 376.78C297.98 376.855 295.149 376.198 292.997 374.808C290.921 373.38 289.163 371.356 287.724 368.738ZM328.044 303.015C326.019 299.067 324.832 295.072 324.484 291.03C324.097 286.913 324.629 282.995 326.078 279.278C327.565 275.446 329.969 271.814 333.291 268.383C336.69 264.912 341.084 261.794 346.474 259.028C351.865 256.262 356.923 254.529 361.648 253.831C366.449 253.094 370.801 253.258 374.705 254.324C378.646 255.275 382.176 257.108 385.296 259.823C388.377 262.462 390.93 265.756 392.956 269.704L399.735 282.914C401.8 286.937 403.006 290.97 403.354 295.012C403.702 299.054 403.133 302.991 401.646 306.823C400.197 310.54 397.773 314.134 394.374 317.604C391.052 321.035 386.696 324.134 381.305 326.9C375.915 329.667 370.819 331.418 366.018 332.156C361.293 332.854 356.96 332.728 353.019 331.777C349.115 330.711 345.623 328.859 342.542 326.219C339.461 323.58 336.889 320.249 334.824 316.225L328.044 303.015ZM386.348 240.005L409.124 228.317L458.565 324.659L435.788 336.347L386.348 240.005ZM349.572 265.064C351.407 269.013 352.518 273.047 352.905 277.165C353.328 281.168 353.082 284.987 352.166 288.622C351.211 292.181 349.681 295.46 347.575 298.459C345.43 301.382 342.765 303.757 339.578 305.584C342.92 304.061 346.404 303.28 350.03 303.242C353.655 303.204 357.211 303.873 360.698 305.248C364.147 306.548 367.373 308.537 370.378 311.215C373.459 313.854 376.069 317.071 378.208 320.865C376.297 316.954 375.129 312.997 374.706 308.994C374.358 304.953 374.642 301.114 375.558 297.479C376.474 293.844 378.005 290.565 380.149 287.642C382.294 284.719 384.998 282.324 388.26 280.458C384.842 282.02 381.32 282.821 377.695 282.859C374.07 282.897 370.513 282.228 367.026 280.852C363.539 279.477 360.254 277.469 357.174 274.83C354.169 272.152 351.635 268.897 349.572 265.064ZM353.847 356.098L422.175 321.033L431.233 338.685L362.905 373.749L353.847 356.098ZM459.941 235.328C457.915 231.381 456.69 227.405 456.266 223.402C455.804 219.324 456.259 215.445 457.633 211.767C459.043 207.974 461.41 204.362 464.732 200.93C468.055 197.499 472.411 194.4 477.801 191.634C483.192 188.868 488.249 187.135 492.974 186.437C497.699 185.739 501.976 185.942 505.804 187.047C509.669 188.037 513.123 189.909 516.167 192.663C519.172 195.341 521.688 198.654 523.714 202.602L546.272 246.559C548.337 250.583 549.581 254.596 550.005 258.599C550.428 262.602 549.915 266.462 548.466 270.179C547.131 273.933 544.803 277.526 541.48 280.957C538.158 284.389 533.801 287.488 528.411 290.254C523.021 293.02 517.963 294.752 513.238 295.451C508.513 296.149 504.199 295.965 500.295 294.9C496.506 293.871 493.109 292.017 490.104 289.339C487.099 286.661 484.564 283.31 482.499 279.286L459.941 235.328ZM518.244 172.318L541.02 160.63L590.461 256.973L567.685 268.661L518.244 172.318ZM479.671 195.278C483.957 203.629 486.669 211.157 487.808 217.862C489.023 224.528 489.161 230.404 488.222 235.49C487.244 240.5 485.4 244.755 482.689 248.257C480.015 251.643 477.008 254.289 473.67 256.194C477.164 254.593 481.086 253.731 485.435 253.609C489.822 253.372 494.335 254.317 498.975 256.444C503.615 258.57 508.289 262.071 512.996 266.945C517.74 271.703 522.255 278.259 526.541 286.61C522.255 278.259 519.525 270.788 518.349 264.198C517.21 257.493 517.129 251.635 518.107 246.626C519.046 241.54 520.853 237.304 523.527 233.917C526.162 230.455 529.149 227.771 532.487 225.866C528.993 227.468 525.091 228.367 520.78 228.565C516.431 228.687 511.936 227.685 507.296 225.558C502.655 223.431 497.944 219.95 493.161 215.116C488.454 210.242 483.957 203.629 479.671 195.278ZM659.968 130.377C663.787 137.817 664.7 144.829 662.708 151.415C660.792 157.961 655.81 163.299 647.763 167.429L601.527 191.156C593.48 195.285 586.201 196.239 579.689 194.018C573.254 191.757 568.127 186.907 564.309 179.467C560.491 172.027 559.54 165.034 561.456 158.487C563.448 151.902 568.467 146.545 576.515 142.415L622.75 118.688C630.798 114.558 638.039 113.623 644.474 115.884C650.986 118.106 656.15 122.936 659.968 130.377ZM624.061 178.153C622.619 175.344 622.128 172.144 622.586 168.551C623.006 164.883 624.454 161.071 626.931 157.114C629.446 153.042 633.009 148.959 637.622 144.865C642.273 140.657 648.127 136.645 655.185 132.831C647.971 136.342 641.318 138.797 635.226 140.196C629.211 141.557 623.835 142.109 619.1 141.854C614.402 141.483 610.441 140.399 607.216 138.601C603.991 136.803 601.658 134.499 600.217 131.69C601.658 134.499 602.169 137.738 601.75 141.406C601.33 145.074 599.863 148.944 597.349 153.016C594.872 156.973 591.289 161.018 586.6 165.15C581.911 169.283 576.037 173.257 568.978 177.071C576.193 173.56 582.865 171.143 588.996 169.82C595.087 168.42 600.482 167.905 605.18 168.276C609.915 168.532 613.895 169.558 617.12 171.356C620.306 173.079 622.619 175.344 624.061 178.153ZM580.073 208.783L674.594 160.278L683.652 177.929L668.848 185.526L681.529 210.238L658.753 221.926L646.072 197.214L626.712 207.149L639.394 231.861L616.618 243.55L603.936 218.838L589.131 226.435L580.073 208.783Z" fill="#FFE194"/>
</g>
<defs>
<filter id="filter0_f_1401_8755" x="0.226562" y="0.881836" width="797.262" height="582.085" filterUnits="userSpaceOnUse" color-interpolation-filters="sRGB">
<feFlood flood-opacity="0" result="BackgroundImageFix"/>
<feBlend mode="normal" in="SourceGraphic" in2="BackgroundImageFix" result="shape"/>
<feGaussianBlur stdDeviation="50" result="effect1_foregroundBlur_1401_8755"/>
</filter>
</defs>
</svg>
