<svg width="24" height="24" viewBox="0 0 24 24" fill="none" xmlns="http://www.w3.org/2000/svg">
<path d="M20 12V14.6C20 16.8402 20 17.9603 19.564 18.816C19.1805 19.5686 18.5686 20.1805 17.816 20.564C16.9603 21 15.8402 21 13.6 21H6.5C5.11929 21 4 19.8807 4 18.5V18.5C4 17.1193 5.11929 16 6.5 16H13.6C15.8402 16 16.9603 16 17.816 15.564C18.5686 15.1805 19.1805 14.5686 19.564 13.816C20 12.9603 20 11.8237 20 9.55039V9.55039C20 7.18216 20 5.99805 19.5277 5.11441C19.1548 4.4167 18.5833 3.84525 17.8856 3.47231C17.0019 3 15.8346 3 13.5 3H12C8.22876 3 6.34315 3 5.17157 4.17157C4 5.34315 4 7.22876 4 11V18.5" stroke="#222222"/>
<path d="M9 8L15 8" stroke="#222222" stroke-linecap="round"/>
</svg>
