<svg width="25" height="25" viewBox="0 0 25 25" fill="none" xmlns="http://www.w3.org/2000/svg">
<path fill-rule="evenodd" clip-rule="evenodd" d="M24.5 12.7839C24.5 11.8975 24.4205 11.0452 24.2727 10.2271H12.5V15.0623H19.2273C18.9375 16.6248 18.0568 17.9486 16.733 18.835V21.9714H20.7727C23.1364 19.7952 24.5 16.5907 24.5 12.7839Z" fill="#4285F4"/>
<path fill-rule="evenodd" clip-rule="evenodd" d="M12.4986 25C15.8736 25 18.7031 23.8807 20.7713 21.9716L16.7315 18.8352C15.6122 19.5852 14.1804 20.0284 12.4986 20.0284C9.2429 20.0284 6.48722 17.8295 5.50426 14.875H1.32812V18.1136C3.38494 22.1989 7.61222 25 12.4986 25Z" fill="#34A853"/>
<path fill-rule="evenodd" clip-rule="evenodd" d="M5.50568 14.8749C5.25568 14.1249 5.11364 13.3237 5.11364 12.4999C5.11364 11.676 5.25568 10.8749 5.50568 10.1249V6.88623H1.32955C0.482954 8.57373 0 10.4828 0 12.4999C0 14.5169 0.482954 16.426 1.32955 18.1135L5.50568 14.8749Z" fill="#FBBC05"/>
<path fill-rule="evenodd" clip-rule="evenodd" d="M12.4986 4.97159C14.3338 4.97159 15.9815 5.60227 17.277 6.84091L20.8622 3.25568C18.6974 1.23864 15.8679 0 12.4986 0C7.61222 0 3.38494 2.80114 1.32812 6.88636L5.50426 10.125C6.48722 7.17045 9.2429 4.97159 12.4986 4.97159Z" fill="#EA4335"/>
</svg>
