<svg width="273" height="93" viewBox="0 0 273 93" fill="none" xmlns="http://www.w3.org/2000/svg">
<path d="M267.018 28.9495C267.213 30.438 266.734 32.1194 265.359 34.0237C263.978 35.9359 261.764 37.9687 258.715 40.0747C252.623 44.2842 243.475 48.5986 231.89 52.7492C208.744 61.0418 176.183 68.5711 139.703 73.3451C103.223 78.119 69.8203 79.222 45.32 77.1646C33.0574 76.1348 23.1073 74.3196 16.1365 71.8197C12.6489 70.569 9.9862 69.1745 8.15984 67.682C6.34104 66.1957 5.44512 64.6943 5.25031 63.2057C5.05551 61.7171 5.53491 60.0357 6.91001 58.1314C8.29083 56.2193 10.505 54.1865 13.5533 52.0805C19.6462 47.871 28.7941 43.5565 40.3788 39.406C63.5245 31.1134 96.086 23.584 132.566 18.8101C169.046 14.0361 202.448 12.9331 226.949 14.9905C239.211 16.0203 249.161 17.8355 256.132 20.3354C259.62 21.5861 262.282 22.9807 264.109 24.4732C265.928 25.9595 266.824 27.4609 267.018 28.9495Z" stroke="#FFE194" stroke-width="3"/>
<path d="M50.0148 47.644V33.748C50.0148 28.708 53.2548 25.108 60.0948 25.108C65.6388 25.108 68.8068 27.484 69.8148 31.084H72.6948V25.468H79.8948V55.924H72.6948V49.624H69.9948C69.2028 53.584 65.9988 56.284 60.0948 56.284C53.2548 56.284 50.0148 52.684 50.0148 47.644ZM60.0948 26.26C60.0948 36.844 55.1268 40.552 50.7708 40.732C55.1268 40.912 60.0948 44.584 60.0948 55.132C60.0948 44.584 65.0268 40.876 69.3828 40.696C65.0268 40.516 60.0948 36.844 60.0948 26.26ZM70.1748 36.844V43.864H72.6948V36.844H70.1748ZM82.9436 30.76V25.9H86.7956V23.848H94.3556V25.9H98.2076V30.76H82.9436ZM99.2876 43.252V25.468H105.552V31.12H107.1V25.468H113.364V43.252H107.1V37.24H105.552V43.252H99.2876ZM98.2076 37.384C98.2076 41.452 95.8316 43.252 92.2676 43.252H88.8836C85.3196 43.252 82.9436 41.452 82.9436 37.384C82.9436 33.316 85.3196 31.516 88.8836 31.516H92.2676C95.8316 31.516 98.2076 33.316 98.2076 37.384ZM90.5756 32.092C90.4676 34.972 88.8476 37.276 84.6356 37.384C88.8476 37.492 90.4676 39.832 90.5756 42.712C90.6476 39.832 92.2676 37.492 96.4796 37.384C92.2676 37.276 90.6476 34.972 90.5756 32.092ZM113.544 50.128C113.544 54.088 110.952 55.924 106.632 55.924H90.2156C85.8956 55.924 83.3036 54.088 83.3036 50.128C83.3036 46.168 85.8956 44.332 90.2156 44.332H106.632C110.952 44.332 113.544 46.168 113.544 50.128ZM98.4236 45.016C98.3156 48.364 95.9756 50.056 86.6876 50.128C95.9756 50.236 98.3156 51.892 98.4236 55.24C98.5316 51.892 100.836 50.236 110.16 50.128C100.836 50.056 98.5316 48.364 98.4236 45.016ZM116.952 37.924V33.748C116.952 28.708 120.372 25.108 127.212 25.108C134.052 25.108 137.472 28.708 137.472 33.748V37.924C137.472 42.964 134.052 46.564 127.212 46.564C120.372 46.564 116.952 42.964 116.952 37.924ZM139.632 55.924V25.468H146.832V55.924H139.632ZM127.212 27.016C127.032 31.948 123.648 35.692 119.508 35.872C123.648 36.052 127.032 39.724 127.212 44.656C127.356 39.724 130.74 36.016 134.916 35.836C130.74 35.656 127.356 31.948 127.212 27.016ZM116.592 55.924V50.344H138.192V55.924H116.592ZM158.648 47.644V33.748C158.648 28.708 161.888 25.108 168.728 25.108C175.568 25.108 178.808 28.708 178.808 33.748V47.644C178.808 52.684 175.568 56.284 168.728 56.284C161.888 56.284 158.648 52.684 158.648 47.644ZM181.328 55.924V25.468H188.528V55.924H181.328ZM168.728 26.26C168.728 36.844 163.76 40.552 159.404 40.732C163.76 40.912 168.728 44.584 168.728 55.132C168.728 44.584 173.66 40.876 178.016 40.696C173.66 40.516 168.728 36.844 168.728 26.26ZM222.176 33.172C222.176 37.852 219.404 40.876 214.364 40.876H199.748C194.708 40.876 191.936 37.852 191.936 33.172C191.936 28.492 194.708 25.468 199.748 25.468H214.364C219.404 25.468 222.176 28.492 222.176 33.172ZM207.056 40.516C207.056 36.988 211.664 33.352 220.664 33.172C211.664 32.992 207.056 29.392 207.056 25.828C207.056 29.392 202.412 32.992 193.412 33.172C202.412 33.352 207.056 36.988 207.056 40.516ZM192.116 48.112V42.532H221.996V48.112H217.316V55.924H210.116V48.112H203.996V55.924H196.796V48.112H192.116Z" fill="#21B69C"/>
<circle cx="26.5" cy="46.5" r="11.5" fill="#FFE194"/>
</svg>
