<svg width="19" height="17" viewBox="0 0 19 17" fill="none" xmlns="http://www.w3.org/2000/svg">
<path d="M16.8044 15.0941L15.3173 13.7354M8.99724 14.4148C9.92485 14.4148 10.8434 14.2478 11.7004 13.9235C12.5574 13.5992 13.3361 13.1238 13.992 12.5246C14.6479 11.9253 15.1682 11.2139 15.5232 10.4309C15.8782 9.64795 16.0609 8.80876 16.0609 7.96128C16.0609 7.1138 15.8782 6.27462 15.5232 5.49165C15.1682 4.70868 14.6479 3.99725 13.992 3.39799C13.3361 2.79873 12.5574 2.32337 11.7004 1.99905C10.8434 1.67474 9.92485 1.50781 8.99724 1.50781C7.12384 1.50781 5.32718 2.18773 4.00249 3.39799C2.6778 4.60825 1.93359 6.24972 1.93359 7.96128C1.93359 9.67285 2.6778 11.3143 4.00249 12.5246C5.32718 13.7348 7.12384 14.4148 8.99724 14.4148V14.4148Z" stroke="white" stroke-opacity="0.96" stroke-width="0.836484" stroke-linecap="round" stroke-linejoin="round"/>
</svg>
