<svg width="59" height="40" viewBox="0 0 59 40" fill="none" xmlns="http://www.w3.org/2000/svg">
<g id="Group 1000000999" filter="url(#filter0_i_1318_12656)">
<path id="Ellipse 5113" d="M53.8538 7.61471C53.9924 7.88928 54.0619 8.58317 53.2414 9.96682C52.4621 11.2811 51.0709 12.8733 49.1051 14.6369C45.1895 18.1497 39.2448 22.1211 32.1969 25.6802C25.1491 29.2393 18.4243 31.666 13.273 32.7319C10.6868 33.267 8.57975 33.4414 7.05942 33.2884C5.45889 33.1274 4.94171 32.6596 4.80305 32.385C4.66439 32.1104 4.59494 31.4165 5.41538 30.0329C6.19472 28.7185 7.58588 27.1264 9.55171 25.3628C13.4673 21.85 19.412 17.8786 26.4599 14.3195C33.5077 10.7604 40.2325 8.33372 45.3838 7.26784C47.97 6.73272 50.0771 6.55826 51.5974 6.71127C53.1979 6.87235 53.7151 7.34014 53.8538 7.61471Z" stroke="#FFE194" stroke-width="2.88"/>
<g id="Group 1000000845">
<ellipse id="Ellipse 5111" cx="29.4117" cy="20.5025" rx="16.693" ry="16.693" fill="#FFE194"/>
<g id="Subtract" filter="url(#filter1_b_1318_12656)">
<path fill-rule="evenodd" clip-rule="evenodd" d="M23.8516 14.1437C29.5517 14.1355 34.1701 9.51206 34.1701 3.80997C34.1701 3.80984 34.1701 3.8097 34.1701 3.80957H34.1745C34.1745 3.8097 34.1745 3.80984 34.1745 3.80997C34.1745 9.51714 38.801 14.1437 44.5082 14.1437C44.5118 14.1437 44.5154 14.1437 44.519 14.1437V14.1455C44.5154 14.1455 44.5118 14.1455 44.5082 14.1455C38.8018 14.1455 34.1757 18.7709 34.1745 24.477H34.1701C34.1689 18.776 29.551 14.1537 23.8516 14.1455V14.1437Z" fill="#FCFCFC"/>
</g>
</g>
</g>
<defs>
<filter id="filter0_i_1318_12656" x="3.27734" y="3.80957" width="52.1055" height="37.3857" filterUnits="userSpaceOnUse" color-interpolation-filters="sRGB">
<feFlood flood-opacity="0" result="BackgroundImageFix"/>
<feBlend mode="normal" in="SourceGraphic" in2="BackgroundImageFix" result="shape"/>
<feColorMatrix in="SourceAlpha" type="matrix" values="0 0 0 0 0 0 0 0 0 0 0 0 0 0 0 0 0 0 127 0" result="hardAlpha"/>
<feOffset dy="4"/>
<feGaussianBlur stdDeviation="2"/>
<feComposite in2="hardAlpha" operator="arithmetic" k2="-1" k3="1"/>
<feColorMatrix type="matrix" values="0 0 0 0 0 0 0 0 0 0 0 0 0 0 0 0 0 0 0.25 0"/>
<feBlend mode="normal" in2="shape" result="effect1_innerShadow_1318_12656"/>
</filter>
<filter id="filter1_b_1318_12656" x="19.8516" y="-0.19043" width="28.668" height="28.667" filterUnits="userSpaceOnUse" color-interpolation-filters="sRGB">
<feFlood flood-opacity="0" result="BackgroundImageFix"/>
<feGaussianBlur in="BackgroundImageFix" stdDeviation="2"/>
<feComposite in2="SourceAlpha" operator="in" result="effect1_backgroundBlur_1318_12656"/>
<feBlend mode="normal" in="SourceGraphic" in2="effect1_backgroundBlur_1318_12656" result="shape"/>
</filter>
</defs>
</svg>
