<svg width="37" height="26" viewBox="0 0 37 26" fill="none" xmlns="http://www.w3.org/2000/svg">
<path d="M33.7903 5.43499C33.8548 5.56273 33.9201 5.96077 33.4082 6.82395C32.9249 7.63898 32.0577 8.63306 30.8246 9.73938C28.3694 11.942 24.6376 14.4356 20.2097 16.6717C15.7817 18.9078 11.5597 20.4308 8.32975 21.0991C6.70742 21.4348 5.39265 21.5426 4.44986 21.4477C3.45139 21.3472 3.16978 21.0585 3.10527 20.9307C3.04076 20.803 2.97554 20.4049 3.48737 19.5418C3.97065 18.7267 4.83786 17.7327 6.07102 16.6263C8.52619 14.4237 12.258 11.9301 16.6859 9.69399C21.1139 7.45791 25.3359 5.93493 28.5659 5.2666C30.1882 4.93092 31.503 4.82311 32.4457 4.91799C33.4442 5.01848 33.7258 5.30724 33.7903 5.43499Z" stroke="#FFE194" stroke-width="2"/>
<circle cx="18.5" cy="13.5" r="10.5" fill="#FFE194"/>
<path fill-rule="evenodd" clip-rule="evenodd" d="M21.5 3C21.5 6.58985 18.5899 9.5 15 9.5C18.5899 9.5 21.5 12.4101 21.5 16C21.5 12.4101 24.4101 9.5 28 9.5C24.4101 9.5 21.5 6.58985 21.5 3Z" fill="#FCFCFC"/>
</svg>
