<svg width="12" height="13" viewBox="0 0 12 13" fill="none" xmlns="http://www.w3.org/2000/svg">
<g id="Cloud_light">
<path id="Union" d="M4.4951 10.4909L4.51369 10.7402L4.4951 10.4909ZM4.47651 10.2416C4.40178 10.2472 4.32624 10.25 4.25 10.25V10.75C4.33866 10.75 4.4266 10.7467 4.51369 10.7402L4.47651 10.2416ZM4.25 10.25C2.59315 10.25 1.25 8.90685 1.25 7.25H0.75C0.75 9.183 2.317 10.75 4.25 10.75V10.25ZM1.25 7.25C1.25 5.59315 2.59315 4.25 4.25 4.25V3.75C2.317 3.75 0.75 5.317 0.75 7.25H1.25ZM4.25 4.25C5.47768 4.25 6.53367 4.98747 6.99808 6.04462L7.45586 5.84351C6.91454 4.61132 5.68314 3.75 4.25 3.75V4.25ZM8 6.75C8.9665 6.75 9.75 7.5335 9.75 8.5H10.25C10.25 7.25736 9.24264 6.25 8 6.25V6.75ZM9.75 8.5C9.75 9.4665 8.9665 10.25 8 10.25V10.75C9.24264 10.75 10.25 9.74264 10.25 8.5H9.75ZM8 10.25H4.50456V10.75H8V10.25ZM4.50456 10.25C4.64011 10.25 4.75 10.3599 4.75 10.4954H4.25C4.25 10.636 4.36397 10.75 4.50456 10.75V10.25ZM6.99808 6.04462C7.16549 6.42568 7.53242 6.75 8 6.75V6.25C7.77962 6.25 7.56515 6.0923 7.45586 5.84351L6.99808 6.04462ZM4.51369 10.7402C4.37156 10.7508 4.25 10.6384 4.25 10.4954H4.75C4.75 10.3472 4.62393 10.2306 4.47651 10.2416L4.51369 10.7402Z" fill="#828282"/>
<path id="Ellipse 92" d="M9.76777 7.26777C10.0194 7.01613 10.2144 6.71368 10.3398 6.38063C10.4651 6.04757 10.5179 5.69159 10.4946 5.33649C10.4714 4.98139 10.3726 4.63535 10.2048 4.32151C10.0371 4.00767 9.80423 3.73325 9.5219 3.51662C9.23958 3.29998 8.91426 3.14612 8.56769 3.06531C8.22112 2.9845 7.8613 2.97861 7.51227 3.04804C7.16325 3.11746 6.83307 3.2606 6.54381 3.46788C6.25454 3.67517 6.01287 3.94181 5.83494 4.25" stroke="#828282" stroke-width="0.5"/>
</g>
</svg>
