<svg width="13" height="13" viewBox="0 0 13 13" fill="none" xmlns="http://www.w3.org/2000/svg">
<g id="Cloud_alt_light">
<path id="Union" d="M5.40135 5L5.61775 5.12518L5.54554 5.25H5.40135V5ZM8 3.75C6.98243 3.75 6.09361 4.30255 5.61775 5.12518L5.18495 4.87482C5.74651 3.90404 6.79673 3.25 8 3.25V3.75ZM10.75 6.5C10.75 4.98122 9.51878 3.75 8 3.75V3.25C9.79493 3.25 11.25 4.70507 11.25 6.5H10.75ZM8 9.25C9.51878 9.25 10.75 8.01878 10.75 6.5H11.25C11.25 8.29493 9.79493 9.75 8 9.75V9.25ZM4.25 9.25H8V9.75H4.25V9.25ZM2.25 7.25C2.25 8.35457 3.14543 9.25 4.25 9.25V9.75C2.86929 9.75 1.75 8.63071 1.75 7.25H2.25ZM4.25 5.25C3.14543 5.25 2.25 6.14543 2.25 7.25H1.75C1.75 5.86929 2.86929 4.75 4.25 4.75V5.25ZM5.40135 5.25H4.25V4.75H5.40135V5.25Z" fill="#828282"/>
<path id="Ellipse 92" d="M8.65886 9.42676C9.21064 9.30254 9.71606 9.02488 10.1168 8.62579C10.5176 8.22671 10.7974 7.72246 10.9239 7.17121C11.0505 6.61997 11.0186 6.04418 10.832 5.51026C10.6454 4.97634 10.3117 4.50604 9.86935 4.15362C9.42699 3.80119 8.89402 3.58099 8.3319 3.51842C7.76979 3.45584 7.20144 3.55345 6.6924 3.79996C6.18337 4.04648 5.75439 4.43188 5.45495 4.91169C5.15551 5.39151 4.9978 5.94619 5.00002 6.51178" stroke="#828282" stroke-width="0.5"/>
</g>
</svg>
