<svg width="10" height="10" viewBox="0 0 10 10" fill="none" xmlns="http://www.w3.org/2000/svg">
<g id="File_dock">
<path id="Rectangle 1" d="M5.48685 1.25H3.7487C2.96302 1.25 2.57019 1.25 2.32611 1.49408C2.08203 1.73816 2.08203 2.13099 2.08203 2.91667V7.08333C2.08203 7.86901 2.08203 8.26184 2.32611 8.50592C2.57019 8.75 2.96302 8.75 3.7487 8.75H6.2487C7.03437 8.75 7.42721 8.75 7.67129 8.50592C7.91536 8.26184 7.91536 7.86901 7.91536 7.08333V3.67851C7.91536 3.5082 7.91536 3.42304 7.88365 3.34647C7.85193 3.2699 7.79172 3.20969 7.67129 3.08926L6.07611 1.49408C5.95568 1.37365 5.89546 1.31343 5.81889 1.28172C5.74232 1.25 5.65717 1.25 5.48685 1.25Z" stroke="#21B69C" stroke-width="0.833333"/>
<path id="Vector 55" d="M3.75 5.4165L6.25 5.4165" stroke="#21B69C" stroke-width="0.833333" stroke-linecap="round"/>
<path id="Vector 58" d="M3.75 7.0835L5.41667 7.0835" stroke="#21B69C" stroke-width="0.833333" stroke-linecap="round"/>
<path id="Rectangle 2" d="M5.41797 1.25V2.91667C5.41797 3.3095 5.41797 3.50592 5.54001 3.62796C5.66205 3.75 5.85847 3.75 6.2513 3.75H7.91797" stroke="#21B69C" stroke-width="0.833333"/>
</g>
</svg>
