<svg width="current" height="current" viewBox="0 0 11 11" fill="none" xmlns="http://www.w3.org/2000/svg">
<g id="Group">
<circle id="Ellipse 46" cx="5.15026" cy="3.43346" r="1.2875" stroke="#33363F" stroke-width="0.858333" stroke-linecap="round"/>
<path id="Ellipse 47" d="M6.55197 3.43255C6.6658 3.23541 6.85327 3.09155 7.07316 3.03263C7.29305 2.97371 7.52733 3.00456 7.72448 3.11838C7.92162 3.2322 8.06548 3.41968 8.1244 3.63957C8.18332 3.85945 8.15247 4.09374 8.03865 4.29089C7.92483 4.48803 7.73735 4.63189 7.51747 4.69081C7.29758 4.74972 7.06329 4.71888 6.86615 4.60506C6.669 4.49124 6.52514 4.30376 6.46623 4.08387C6.40731 3.86398 6.43815 3.6297 6.55197 3.43255L6.55197 3.43255Z" stroke="#33363F" stroke-width="0.858333"/>
<path id="Ellipse 48" d="M2.25901 3.43255C2.37283 3.23541 2.5603 3.09155 2.78019 3.03263C3.00008 2.97371 3.23436 3.00456 3.43151 3.11838C3.62866 3.2322 3.77251 3.41968 3.83143 3.63957C3.89035 3.85945 3.8595 4.09374 3.74568 4.29089C3.63186 4.48803 3.44438 4.63189 3.2245 4.69081C3.00461 4.74972 2.77032 4.71888 2.57318 4.60506C2.37603 4.49124 2.23218 4.30376 2.17326 4.08387C2.11434 3.86398 2.14518 3.6297 2.25901 3.43255L2.25901 3.43255Z" stroke="#33363F" stroke-width="0.858333"/>
<path id="Subtract" d="M7.24534 7.72643L6.82463 7.81117L6.89399 8.1556H7.24534V7.72643ZM8.89274 7.25613L9.29721 7.11267L8.89274 7.25613ZM6.34375 6.3147L6.08417 5.97294L5.58781 6.34995L6.11709 6.67914L6.34375 6.3147ZM8.52666 7.29727H7.24534V8.1556H8.52666V7.29727ZM8.48826 7.3996C8.48524 7.39107 8.48245 7.37495 8.48602 7.35536C8.4894 7.3368 8.49706 7.32273 8.50431 7.3137C8.51814 7.29649 8.52957 7.29727 8.52666 7.29727V8.1556C9.01849 8.1556 9.50265 7.69186 9.29721 7.11267L8.48826 7.3996ZM7.29615 6.43893C8.00067 6.43893 8.3273 6.94581 8.48826 7.3996L9.29721 7.11267C9.09763 6.54998 8.56156 5.5806 7.29615 5.5806V6.43893ZM6.60333 6.65646C6.76834 6.53114 6.988 6.43893 7.29615 6.43893V5.5806C6.7975 5.5806 6.39609 5.73602 6.08417 5.97294L6.60333 6.65646ZM6.11709 6.67914C6.56306 6.9565 6.74986 7.43992 6.82463 7.81117L7.66606 7.6417C7.57252 7.17725 7.3122 6.41162 6.57041 5.95027L6.11709 6.67914Z" fill="#33363F"/>
<path id="Subtract_2" d="M3.95648 6.3147L4.18314 6.67913L4.71243 6.34995L4.21607 5.97294L3.95648 6.3147ZM1.4075 7.25613L1.00302 7.11266L1.4075 7.25613ZM3.05489 7.72643V8.1556H3.40623L3.4756 7.81117L3.05489 7.72643ZM3.00409 6.43893C3.31224 6.43893 3.5319 6.53113 3.6969 6.65646L4.21607 5.97294C3.90415 5.73602 3.50273 5.5806 3.00409 5.5806V6.43893ZM1.81197 7.3996C1.97293 6.94581 2.29957 6.43893 3.00409 6.43893V5.5806C1.73869 5.5806 1.20261 6.54998 1.00302 7.11266L1.81197 7.3996ZM1.77357 7.29727C1.77066 7.29727 1.78209 7.29649 1.79592 7.3137C1.80317 7.32273 1.81083 7.3368 1.81421 7.35536C1.81778 7.37495 1.815 7.39108 1.81197 7.3996L1.00302 7.11266C0.797581 7.69185 1.28174 8.1556 1.77357 8.1556V7.29727ZM3.05489 7.29727H1.77357V8.1556H3.05489V7.29727ZM3.4756 7.81117C3.55037 7.43992 3.73717 6.9565 4.18314 6.67913L3.72983 5.95027C2.98803 6.41162 2.72771 7.17725 2.63417 7.6417L3.4756 7.81117Z" fill="#33363F"/>
<path id="Rectangle 4160" d="M5.14974 6.00781C6.68253 6.00781 7.12043 7.10269 7.24554 7.72829C7.29202 7.96071 7.10343 8.15365 6.86641 8.15365H3.43307C3.19605 8.15365 3.00746 7.96071 3.05394 7.72829C3.17905 7.10269 3.61695 6.00781 5.14974 6.00781Z" stroke="#33363F" stroke-width="0.858333" stroke-linecap="round"/>
</g>
</svg>
