<svg width="32" height="32" viewBox="0 0 32 32" fill="none" xmlns="http://www.w3.org/2000/svg">
<path fill-rule="evenodd" clip-rule="evenodd" d="M16 32C24.8366 32 32 24.8366 32 16C32 7.16344 24.8366 0 16 0C7.16344 0 0 7.16344 0 16C0 24.8366 7.16344 32 16 32Z" fill="#C0C0C2"/>
<path fill-rule="evenodd" clip-rule="evenodd" d="M23 14.5C23 19.5556 16.5 23.8889 16.5 23.8889C16.5 23.8889 10 19.5556 10 14.5C10 10.9101 12.9101 8 16.5 8C20.0899 8 23 10.9101 23 14.5V14.5Z" stroke="white" stroke-width="2" stroke-linecap="round" stroke-linejoin="round"/>
<path fill-rule="evenodd" clip-rule="evenodd" d="M16.4987 16.6673C17.6953 16.6673 18.6654 15.6973 18.6654 14.5007C18.6654 13.304 17.6953 12.334 16.4987 12.334C15.3021 12.334 14.332 13.304 14.332 14.5007C14.332 15.6973 15.3021 16.6673 16.4987 16.6673Z" stroke="white" stroke-width="2" stroke-linecap="round" stroke-linejoin="round"/>
</svg>
