<svg width="12" height="13" viewBox="0 0 12 13" fill="none" xmlns="http://www.w3.org/2000/svg">
<g id="Rain_light">
<path id="Union" d="M3.71803 3.4774L3.48995 3.37504L3.71803 3.4774ZM6 6.75H3V7.25H6V6.75ZM9 6.75H6V7.25H9V6.75ZM10.25 5.5C10.25 6.19036 9.69036 6.75 9 6.75V7.25C9.9665 7.25 10.75 6.4665 10.75 5.5H10.25ZM9 4.25C9.69036 4.25 10.25 4.80964 10.25 5.5H10.75C10.75 4.5335 9.9665 3.75 9 3.75V4.25ZM8.51005 3.37504C8.08036 2.41763 7.11842 1.75 6 1.75V2.25C6.91437 2.25 7.70188 2.79545 8.05389 3.57977L8.51005 3.37504ZM6 1.75C4.88158 1.75 3.91964 2.41763 3.48995 3.37504L3.94611 3.57977C4.29812 2.79545 5.08563 2.25 6 2.25V1.75ZM3 3.75C2.0335 3.75 1.25 4.5335 1.25 5.5H1.75C1.75 4.80964 2.30964 4.25 3 4.25V3.75ZM1.25 5.5C1.25 6.4665 2.0335 7.25 3 7.25V6.75C2.30964 6.75 1.75 6.19036 1.75 5.5H1.25ZM3.48995 3.37504C3.38573 3.60725 3.19235 3.75 3 3.75V4.25C3.44769 4.25 3.78826 3.93148 3.94611 3.57977L3.48995 3.37504ZM9 3.75C8.80765 3.75 8.61427 3.60725 8.51005 3.37504L8.05389 3.57977C8.21174 3.93148 8.55231 4.25 9 4.25V3.75Z" fill="#828282"/>
<path id="Vector 167" d="M6 10V9" stroke="#828282" stroke-width="0.5" stroke-linecap="round"/>
<path id="Vector 169" d="M8.5 10.5V9" stroke="#828282" stroke-width="0.5" stroke-linecap="round"/>
<path id="Vector 168" d="M3.5 11V9" stroke="#828282" stroke-width="0.5" stroke-linecap="round"/>
</g>
</svg>
