<svg width="15" height="15" viewBox="0 0 15 15" fill="none" xmlns="http://www.w3.org/2000/svg">
<g id="Trash_light">
<path id="Vector 8" d="M5.9375 9.0625L5.9375 7.1875" stroke="#222222" stroke-linecap="round"/>
<path id="Vector 9" d="M9.0625 9.0625L9.0625 7.1875" stroke="#222222" stroke-linecap="round"/>
<path id="Rectangle 41" d="M1.875 4.0625H13.125V4.0625C12.9509 4.0625 12.8638 4.0625 12.7904 4.06792C11.8018 4.14084 11.0158 4.92683 10.9429 5.91537C10.9375 5.98884 10.9375 6.07589 10.9375 6.25V8.75C10.9375 10.095 10.9375 10.7675 10.6272 11.2575C10.469 11.5073 10.2573 11.719 10.0075 11.8772C9.51749 12.1875 8.84499 12.1875 7.5 12.1875V12.1875C6.15501 12.1875 5.48251 12.1875 4.9925 11.8772C4.74266 11.719 4.53101 11.5073 4.37279 11.2575C4.0625 10.7675 4.0625 10.095 4.0625 8.75V6.25C4.0625 6.07589 4.0625 5.98884 4.05708 5.91537C3.98416 4.92683 3.19817 4.14084 2.20963 4.06792C2.13616 4.0625 2.04911 4.0625 1.875 4.0625V4.0625Z" stroke="#222222" stroke-linecap="round"/>
<path id="Ellipse 45" d="M5.9375 2.18765C5.9375 2.18765 6.25 1.5625 7.5 1.5625C8.75 1.5625 9.0625 2.1875 9.0625 2.1875" stroke="#222222" stroke-linecap="round"/>
</g>
</svg>
