<svg width="13" height="13" viewBox="0 0 13 13" fill="none" xmlns="http://www.w3.org/2000/svg">
<g id="Winter_light">
<circle id="Ellipse 108" cx="6.5" cy="6.5" r="1.25" stroke="#828282" stroke-width="0.5"/>
<path id="Vector 166" d="M6.5 5V3.5M6.5 2V3.5M6.5 3.5L5 2.5M6.5 3.5L8 2.5" stroke="#828282" stroke-width="0.5" stroke-linecap="round"/>
<path id="Vector 168" d="M8 6.5L9.5 6.5M11 6.5L9.5 6.5M9.5 6.5L10.5 5M9.5 6.5L10.5 8" stroke="#828282" stroke-width="0.5" stroke-linecap="round"/>
<path id="Vector 167" d="M6.5 8V9.5M6.5 11V9.5M6.5 9.5L5 10.5M6.5 9.5L8 10.5" stroke="#828282" stroke-width="0.5" stroke-linecap="round"/>
<path id="Vector 169" d="M5 6.5L3.5 6.5M2 6.5L3.5 6.5M3.5 6.5L2.5 5M3.5 6.5L2.5 8" stroke="#828282" stroke-width="0.5" stroke-linecap="round"/>
</g>
</svg>
