<svg width="15" height="15" viewBox="0 0 15 15" fill="none" xmlns="http://www.w3.org/2000/svg">
<path d="M3.28125 10.625H5.625C6.66053 10.625 7.5 11.4645 7.5 12.5V6.71875C7.5 5.58445 7.5 5.0173 7.34858 4.55895C7.05061 3.65696 6.34304 2.94939 5.44105 2.65142C4.9827 2.5 4.41555 2.5 3.28125 2.5C2.90315 2.5 2.7141 2.5 2.56132 2.55047C2.26065 2.6498 2.0248 2.88565 1.92547 3.18632C1.875 3.3391 1.875 3.52815 1.875 3.90625V9.21875C1.875 9.59685 1.875 9.7859 1.92547 9.93868C2.0248 10.2393 2.26065 10.4752 2.56132 10.5745C2.7141 10.625 2.90315 10.625 3.28125 10.625Z" stroke="#828282"/>
<path d="M11.7188 10.625H9.375C8.33947 10.625 7.5 11.4645 7.5 12.5V6.71875C7.5 5.58445 7.5 5.0173 7.65142 4.55895C7.94939 3.65696 8.65696 2.94939 9.55895 2.65142C10.0173 2.5 10.5844 2.5 11.7188 2.5C12.0969 2.5 12.2859 2.5 12.4387 2.55047C12.7393 2.6498 12.9752 2.88565 13.0745 3.18632C13.125 3.3391 13.125 3.52815 13.125 3.90625V9.21875C13.125 9.59685 13.125 9.7859 13.0745 9.93868C12.9752 10.2393 12.7393 10.4752 12.4387 10.5745C12.2859 10.625 12.0969 10.625 11.7188 10.625Z" stroke="#828282"/>
</svg>
