<svg width="15" height="15" viewBox="0 0 15 15" fill="none" xmlns="http://www.w3.org/2000/svg">
<path d="M4.375 8.95833C4.375 8.88096 4.375 8.84227 4.37607 8.80956C4.41055 7.75634 5.25634 6.91055 6.30956 6.87607C6.34227 6.875 6.38096 6.875 6.45833 6.875H8.54167C8.61904 6.875 8.65773 6.875 8.69044 6.87607C9.74366 6.91055 10.5895 7.75634 10.6239 8.80956C10.625 8.84227 10.625 8.88096 10.625 8.95833V10C10.625 11.7259 9.22589 13.125 7.5 13.125V13.125C5.77411 13.125 4.375 11.7259 4.375 10V8.95833Z" stroke="#828282"/>
<path d="M5.625 5.625C5.625 4.58947 6.46447 3.75 7.5 3.75V3.75C8.53553 3.75 9.375 4.58947 9.375 5.625V6.875H5.625V5.625Z" stroke="#828282"/>
<path d="M7.5 6.875V9.375" stroke="#828282"/>
<path d="M9.375 1.875L8.125 3.75" stroke="#828282"/>
<path d="M5.625 1.875L6.875 3.75" stroke="#828282"/>
<path d="M4.375 10H1.25" stroke="#828282"/>
<path d="M13.75 10H10.625" stroke="#828282"/>
<path d="M12.5 5.625V6.25C12.5 7.28553 11.6605 8.125 10.625 8.125V8.125" stroke="#828282"/>
<path d="M12.5 13.75V13.75C12.5 12.7145 11.6605 11.875 10.625 11.875V11.875" stroke="#828282"/>
<path d="M2.5 5.625V6.25C2.5 7.28553 3.33947 8.125 4.375 8.125V8.125" stroke="#828282"/>
<path d="M2.5 13.75V13.75C2.5 12.7145 3.33947 11.875 4.375 11.875V11.875" stroke="#828282"/>
</svg>
