<svg width="15" height="15" viewBox="0 0 15 15" fill="none" xmlns="http://www.w3.org/2000/svg">
<path d="M12.0787 3.61107L12.4944 3.33329L12.4944 3.33329L12.0787 3.61107ZM12.0787 10.1389L12.4944 10.4167L12.4944 10.4167L12.0787 10.1389ZM11.3889 10.8287L11.6667 11.2444L11.3889 10.8287ZM8.75 11.2491L8.74782 10.7492C8.47253 10.7504 8.25 10.9739 8.25 11.2491H8.75ZM8.75 11.25L9.19721 11.4736C9.23193 11.4042 9.25 11.3276 9.25 11.25H8.75ZM6.25 11.25H5.75C5.75 11.3276 5.76807 11.4042 5.80279 11.4736L6.25 11.25ZM6.25 11.2491H6.75C6.75 10.9739 6.52747 10.7504 6.25218 10.7492L6.25 11.2491ZM3.61107 10.8287L3.88886 10.4129L3.61107 10.8287ZM2.92133 10.1389L2.50559 10.4167H2.50559L2.92133 10.1389ZM2.92133 3.61107L2.50559 3.33329H2.50559L2.92133 3.61107ZM3.61107 2.92133L3.33329 2.50559V2.50559L3.61107 2.92133ZM11.3889 2.92133L11.6667 2.50559V2.50559L11.3889 2.92133ZM13 6.875C13 6.00762 13.0006 5.31944 12.9448 4.77055C12.8881 4.2133 12.7691 3.74442 12.4944 3.33329L11.6629 3.88886C11.8096 4.10829 11.9013 4.39358 11.9499 4.87176C11.9994 5.35829 12 5.9868 12 6.875H13ZM12.4944 10.4167C12.7691 10.0056 12.8881 9.5367 12.9448 8.97945C13.0006 8.43056 13 7.74238 13 6.875H12C12 7.7632 11.9994 8.39171 11.9499 8.87824C11.9013 9.35642 11.8096 9.64171 11.6629 9.86114L12.4944 10.4167ZM11.6667 11.2444C11.9943 11.0255 12.2755 10.7443 12.4944 10.4167L11.6629 9.86114C11.517 10.0795 11.3295 10.267 11.1111 10.4129L11.6667 11.2444ZM8.75218 11.7491C9.42408 11.7462 9.97742 11.7336 10.4371 11.67C10.9048 11.6054 11.3076 11.4843 11.6667 11.2444L11.1111 10.4129C10.9194 10.5411 10.6771 10.6273 10.3001 10.6794C9.91518 10.7327 9.42448 10.7462 8.74782 10.7492L8.75218 11.7491ZM9.25 11.25V11.2491H8.25V11.25H9.25ZM8.84164 12.1848L9.19721 11.4736L8.30279 11.0264L7.94721 11.7375L8.84164 12.1848ZM6.15836 12.1848C6.71115 13.2903 8.28886 13.2903 8.84164 12.1848L7.94721 11.7375C7.76295 12.1061 7.23705 12.1061 7.05279 11.7375L6.15836 12.1848ZM5.80279 11.4736L6.15836 12.1848L7.05279 11.7375L6.69721 11.0264L5.80279 11.4736ZM5.75 11.2491V11.25H6.75V11.2491H5.75ZM3.33329 11.2444C3.69237 11.4843 4.09524 11.6054 4.56293 11.67C5.02258 11.7336 5.57592 11.7462 6.24782 11.7491L6.25218 10.7492C5.57552 10.7462 5.08482 10.7327 4.69986 10.6794C4.32293 10.6273 4.08062 10.5411 3.88886 10.4129L3.33329 11.2444ZM2.50559 10.4167C2.72447 10.7443 3.00572 11.0255 3.33329 11.2444L3.88886 10.4129C3.67048 10.267 3.48298 10.0795 3.33706 9.86114L2.50559 10.4167ZM2 6.875C2 7.74238 1.9994 8.43056 2.05523 8.97945C2.11192 9.5367 2.23088 10.0056 2.50559 10.4167L3.33706 9.86114C3.19044 9.64171 3.09874 9.35642 3.0501 8.87824C3.0006 8.39171 3 7.7632 3 6.875H2ZM2.50559 3.33329C2.23088 3.74442 2.11192 4.2133 2.05523 4.77055C1.9994 5.31944 2 6.00762 2 6.875H3C3 5.9868 3.0006 5.35829 3.0501 4.87176C3.09874 4.39358 3.19044 4.10829 3.33706 3.88886L2.50559 3.33329ZM3.33329 2.50559C3.00572 2.72447 2.72447 3.00572 2.50559 3.33329L3.33706 3.88886C3.48298 3.67048 3.67048 3.48298 3.88886 3.33706L3.33329 2.50559ZM6.875 2C6.00762 2 5.31944 1.9994 4.77055 2.05523C4.2133 2.11192 3.74442 2.23088 3.33329 2.50559L3.88886 3.33706C4.10829 3.19044 4.39358 3.09874 4.87176 3.0501C5.35829 3.0006 5.9868 3 6.875 3V2ZM8.125 2H6.875V3H8.125V2ZM11.6667 2.50559C11.2556 2.23088 10.7867 2.11192 10.2294 2.05523C9.68056 1.9994 8.99238 2 8.125 2V3C9.0132 3 9.64171 3.0006 10.1282 3.0501C10.6064 3.09874 10.8917 3.19044 11.1111 3.33706L11.6667 2.50559ZM12.4944 3.33329C12.2755 3.00572 11.9943 2.72447 11.6667 2.50559L11.1111 3.33706C11.3295 3.48298 11.517 3.67048 11.6629 3.88886L12.4944 3.33329Z" fill="#828282"/>
<circle cx="10" cy="6.875" r="0.625" fill="#828282"/>
<circle cx="7.5" cy="6.875" r="0.625" fill="#828282"/>
<circle cx="5" cy="6.875" r="0.625" fill="#828282"/>
</svg>
