<svg width="15" height="15" viewBox="0 0 15 15" fill="none" xmlns="http://www.w3.org/2000/svg">
<path d="M7.5 12.5L3.17658 7.09572C2.84716 6.68395 2.68245 6.47806 2.63707 6.2302C2.63652 6.2272 2.63598 6.2242 2.63546 6.22119C2.59236 5.97293 2.67573 5.7228 2.84249 5.22252V5.22252C3.27838 3.91487 3.49632 3.26104 4.01281 2.88425C4.01899 2.87974 4.02519 2.87527 4.03143 2.87083C4.5522 2.5 5.2414 2.5 6.61979 2.5H8.38021C9.7586 2.5 10.4478 2.5 10.9686 2.87083C10.9748 2.87527 10.981 2.87974 10.9872 2.88425C11.5037 3.26104 11.7216 3.91487 12.1575 5.22252V5.22252C12.3243 5.7228 12.4076 5.97293 12.3645 6.22119C12.364 6.2242 12.3635 6.2272 12.3629 6.2302C12.3176 6.47806 12.1528 6.68395 11.8234 7.09572L7.5 12.5ZM7.5 12.5L9.6875 5.625M7.5 12.5L5.3125 5.625M12.1875 6.25L9.6875 5.625M9.6875 5.625L8.75 3.125M9.6875 5.625H5.3125M6.25 3.125L5.3125 5.625M5.3125 5.625L2.8125 6.25" stroke="#828282" stroke-linecap="round"/>
</svg>
