<svg width="15" height="15" viewBox="0 0 15 15" fill="none" xmlns="http://www.w3.org/2000/svg">
<circle cx="7.5" cy="9.375" r="1.25" fill="#828282"/>
<path d="M2.8125 8.6875C2.8125 7.98972 2.8125 7.64083 2.89862 7.35693C3.09252 6.71773 3.59273 6.21752 4.23193 6.02362C4.51583 5.9375 4.86472 5.9375 5.5625 5.9375H9.4375C10.1353 5.9375 10.4842 5.9375 10.7681 6.02362C11.4073 6.21752 11.9075 6.71773 12.1014 7.35693C12.1875 7.64083 12.1875 7.98972 12.1875 8.6875V8.6875C12.1875 9.73417 12.1875 10.2575 12.0583 10.6834C11.7675 11.6422 11.0172 12.3925 10.0584 12.6833C9.63251 12.8125 9.10917 12.8125 8.0625 12.8125H6.9375C5.89083 12.8125 5.36749 12.8125 4.94165 12.6833C3.98284 12.3925 3.23253 11.6422 2.94168 10.6834C2.8125 10.2575 2.8125 9.73417 2.8125 8.6875V8.6875Z" stroke="#828282"/>
<path d="M10.3125 5.9375V5C10.3125 3.4467 9.0533 2.1875 7.5 2.1875V2.1875C5.9467 2.1875 4.6875 3.4467 4.6875 5V5.9375" stroke="#828282" stroke-linecap="round"/>
</svg>
