<svg width="15" height="15" viewBox="0 0 15 15" fill="none" xmlns="http://www.w3.org/2000/svg">
<path d="M11.5625 5.9375V5.9375C11.5625 5.47284 11.5625 5.24052 11.5241 5.04732C11.3663 4.25394 10.7461 3.63374 9.95268 3.47593C9.75948 3.4375 9.52716 3.4375 9.0625 3.4375H5.9375C4.88809 3.4375 4.36338 3.4375 3.95739 3.62952C3.5391 3.82736 3.20236 4.1641 3.00452 4.58239C2.8125 4.98838 2.8125 5.51309 2.8125 6.5625V6.5625C2.8125 7.61191 2.8125 8.13662 3.00452 8.54261C3.20236 8.9609 3.5391 9.29764 3.95739 9.49548C4.36338 9.6875 4.88809 9.6875 5.9375 9.6875H8.4375" stroke="#828282" stroke-linecap="round"/>
<path d="M4.6875 7.8125H7.1875" stroke="#828282" stroke-linecap="round"/>
<path d="M4.6875 5.3125H9.0625" stroke="#828282" stroke-linecap="round"/>
<circle cx="10.9375" cy="8.4375" r="1.0625" stroke="#828282"/>
<path d="M12.1875 11.5625C12.1875 11.5625 11.875 10.9375 10.9375 10.9375C10 10.9375 9.6875 11.5625 9.6875 11.5625" stroke="#828282" stroke-linecap="round"/>
</svg>
