<svg width="15" height="15" viewBox="0 0 15 15" fill="none" xmlns="http://www.w3.org/2000/svg">
<path d="M1.25 7.5L0.859566 7.18765L0.609688 7.5L0.859566 7.81235L1.25 7.5ZM6.875 8C7.15114 8 7.375 7.77614 7.375 7.5C7.375 7.22386 7.15114 7 6.875 7V8ZM3.35957 4.06265L0.859566 7.18765L1.64043 7.81235L4.14043 4.68735L3.35957 4.06265ZM0.859566 7.81235L3.35957 10.9373L4.14043 10.3127L1.64043 7.18765L0.859566 7.81235ZM1.25 8H6.875V7H1.25V8Z" fill="#828282"/>
<path d="M6.25 5.08246V4.96048C6.25 4.23596 6.25 3.8737 6.35018 3.5692C6.51261 3.0755 6.86085 2.66443 7.32112 2.42304C7.60501 2.27417 7.96234 2.21461 8.677 2.0955V2.0955C10.1225 1.85459 10.8452 1.73414 11.4263 1.86861C12.3706 2.0871 13.1511 2.7483 13.5218 3.64377C13.75 4.19489 13.75 4.92758 13.75 6.39297V8.60703C13.75 10.0724 13.75 10.8051 13.5218 11.3562C13.1511 12.2517 12.3706 12.9129 11.4263 13.1314C10.8452 13.2659 10.1221 13.1453 8.67586 12.9043V12.9043C7.96244 12.7854 7.60573 12.726 7.32238 12.5776C6.86106 12.3361 6.51213 11.9242 6.34974 11.4295C6.25 11.1256 6.25 10.7641 6.25 10.0412V10.0412" stroke="#828282"/>
</svg>
