<svg width="20" height="20" viewBox="0 0 20 20" fill="none" xmlns="http://www.w3.org/2000/svg">
<path d="M7.7278 15.4023L7.48145 14.9672L7.72781 15.4023C7.90683 15.301 8.05036 15.1571 8.21248 14.9947C8.22332 14.9838 8.23425 14.9729 8.24527 14.9618L14.1036 9.10355L14.1211 9.08597C14.3604 8.84674 14.5667 8.64045 14.7174 8.45473C14.8773 8.25768 15.0113 8.04102 15.0609 7.77208L14.5692 7.68139L15.0609 7.77208C15.0941 7.59221 15.0941 7.40779 15.0609 7.22792L14.5692 7.31861L15.0609 7.22792C15.0113 6.95898 14.8773 6.74232 14.7174 6.54527C14.5667 6.35955 14.3604 6.15328 14.1212 5.91407L14.1036 5.89645L13.75 6.25L14.1036 5.89645L14.086 5.87884C13.8467 5.6396 13.6405 5.4333 13.4547 5.2826C13.2577 5.1227 13.041 4.9887 12.7721 4.9391C12.5922 4.90592 12.4078 4.90592 12.2279 4.9391C11.959 4.9887 11.7423 5.1227 11.5453 5.2826C11.3596 5.43331 11.1533 5.63961 10.914 5.87885L10.8965 5.89645L5.03817 11.7547C5.02714 11.7658 5.0162 11.7767 5.00533 11.7875C4.84286 11.9496 4.69904 12.0932 4.59767 12.2722C4.4963 12.4512 4.44723 12.6484 4.3918 12.8711C4.38809 12.886 4.38436 12.901 4.38058 12.9162L3.88371 14.9036C3.8815 14.9125 3.87927 14.9214 3.87703 14.9303C3.83779 15.087 3.79588 15.2543 3.78213 15.3949C3.76699 15.5496 3.77052 15.8107 3.97993 16.0201C4.18935 16.2295 4.4504 16.233 4.60513 16.2179C4.74567 16.2041 4.91301 16.1622 5.0697 16.123C5.07863 16.1207 5.08753 16.1185 5.09639 16.1163L7.08385 15.6194C7.09897 15.6156 7.11397 15.6119 7.12886 15.6082C7.3516 15.5528 7.54877 15.5037 7.7278 15.4023Z" stroke="white"/>
<path d="M10.4167 6.25004L12.9167 4.58337L15.4167 7.08337L13.75 9.58337L10.4167 6.25004Z" fill="white"/>
</svg>
