<svg width="16" height="16" viewBox="0 0 16 16" fill="none" xmlns="http://www.w3.org/2000/svg">
<g id="User_add_light">
<circle id="Ellipse 46" cx="8" cy="5.5" r="2.5" stroke="#222222" stroke-width="0.625" stroke-linecap="round"/>
<path id="Subtract" fill-rule="evenodd" clip-rule="evenodd" d="M10.0451 10.5C9.18345 10.2258 8.24118 10.1296 7.31434 10.2211C6.28903 10.3223 5.31938 10.6498 4.52923 11.1695C3.73901 11.6893 3.15627 12.3836 2.87377 13.1743C2.81571 13.3368 2.90039 13.5156 3.06292 13.5737C3.22544 13.6318 3.40427 13.5471 3.46234 13.3846C3.69173 12.7425 4.1759 12.15 4.87268 11.6917C5.56953 11.2333 6.44018 10.9354 7.37576 10.8431C7.71941 10.8091 8.06491 10.8036 8.40619 10.8257C8.62829 10.6233 8.92358 10.5 9.24768 10.5L10.0451 10.5Z" fill="#222222"/>
<path id="Vector 52" d="M11.75 9.25L11.75 14.25" stroke="#222222" stroke-width="0.625" stroke-linecap="round"/>
<path id="Vector 53" d="M14.25 11.75L9.25 11.75" stroke="#222222" stroke-width="0.625" stroke-linecap="round"/>
</g>
</svg>
