<svg width="16" height="16" viewBox="0 0 16 16" fill="none" xmlns="http://www.w3.org/2000/svg">
<path d="M15.1667 15.1667L13.75 13.75M7.72917 14.4583C8.61285 14.4583 9.48789 14.2843 10.3043 13.9461C11.1207 13.6079 11.8625 13.1123 12.4874 12.4874C13.1123 11.8625 13.6079 11.1207 13.9461 10.3043C14.2843 9.48789 14.4583 8.61285 14.4583 7.72917C14.4583 6.84548 14.2843 5.97045 13.9461 5.15403C13.6079 4.33761 13.1123 3.59579 12.4874 2.97093C11.8625 2.34607 11.1207 1.8504 10.3043 1.51223C9.48789 1.17405 8.61285 1 7.72917 1C5.94448 1 4.23289 1.70896 2.97093 2.97093C1.70896 4.23289 1 5.94448 1 7.72917C1 9.51385 1.70896 11.2254 2.97093 12.4874C4.23289 13.7494 5.94448 14.4583 7.72917 14.4583V14.4583Z" stroke="white" stroke-opacity="0.96" stroke-width="0.836484" stroke-linecap="round" stroke-linejoin="round"/>
</svg>
