<svg width="8" height="3" viewBox="0 0 8 3" fill="none" xmlns="http://www.w3.org/2000/svg">
<mask id="path-1-outside-1_1916_38610" maskUnits="userSpaceOnUse" x="0" y="0" width="8" height="3" fill="black">
<rect fill="white" width="8" height="3"/>
<path d="M0.953125 2.07031C0.542969 2.06445 0.191406 1.72461 0.203125 1.30859C0.191406 0.898438 0.542969 0.558594 0.953125 0.558594C1.36914 0.558594 1.70898 0.898438 1.70312 1.30859C1.70898 1.72461 1.36914 2.06445 0.953125 2.07031ZM4 2.07031C3.58984 2.06445 3.23828 1.72461 3.25 1.30859C3.23828 0.898438 3.58984 0.558594 4 0.558594C4.41602 0.558594 4.75586 0.898438 4.75 1.30859C4.75586 1.72461 4.41602 2.06445 4 2.07031ZM7.04688 2.07031C6.63672 2.06445 6.28516 1.72461 6.29688 1.30859C6.28516 0.898438 6.63672 0.558594 7.04688 0.558594C7.46289 0.558594 7.80273 0.898438 7.79688 1.30859C7.80273 1.72461 7.46289 2.06445 7.04688 2.07031Z"/>
</mask>
<path d="M0.953125 2.07031C0.542969 2.06445 0.191406 1.72461 0.203125 1.30859C0.191406 0.898438 0.542969 0.558594 0.953125 0.558594C1.36914 0.558594 1.70898 0.898438 1.70312 1.30859C1.70898 1.72461 1.36914 2.06445 0.953125 2.07031ZM4 2.07031C3.58984 2.06445 3.23828 1.72461 3.25 1.30859C3.23828 0.898438 3.58984 0.558594 4 0.558594C4.41602 0.558594 4.75586 0.898438 4.75 1.30859C4.75586 1.72461 4.41602 2.06445 4 2.07031ZM7.04688 2.07031C6.63672 2.06445 6.28516 1.72461 6.29688 1.30859C6.28516 0.898438 6.63672 0.558594 7.04688 0.558594C7.46289 0.558594 7.80273 0.898438 7.79688 1.30859C7.80273 1.72461 7.46289 2.06445 7.04688 2.07031Z" fill="#828282"/>
<path d="M0.953125 2.07031L0.951696 2.17034L0.954533 2.1703L0.953125 2.07031ZM0.203125 1.30859L0.303246 1.31141L0.303084 1.30574L0.203125 1.30859ZM1.70312 1.30859L1.6031 1.30717L1.60313 1.31L1.70312 1.30859ZM0.954553 1.97032C0.596091 1.9652 0.293049 1.66769 0.303085 1.31141L0.103165 1.30578C0.0897633 1.78153 0.489846 2.1637 0.951697 2.1703L0.954553 1.97032ZM0.303084 1.30574C0.293081 0.955624 0.595525 0.658594 0.953125 0.658594V0.458593C0.490412 0.458593 0.0897316 0.841251 0.103166 1.31145L0.303084 1.30574ZM0.953125 0.658594C1.31471 0.658594 1.60818 0.954143 1.60314 1.30717L1.80311 1.31002C1.80979 0.842732 1.42357 0.458593 0.953125 0.458593V0.658594ZM1.60313 1.31C1.60819 1.66916 1.31416 1.96522 0.951717 1.97032L0.954533 2.1703C1.42412 2.16369 1.80978 1.78006 1.80312 1.30719L1.60313 1.31ZM4 2.07031L3.99857 2.17034L4.00141 2.1703L4 2.07031ZM3.25 1.30859L3.35012 1.31141L3.34996 1.30574L3.25 1.30859ZM4.75 1.30859L4.64997 1.30717L4.65001 1.31L4.75 1.30859ZM4.00143 1.97032C3.64297 1.9652 3.33992 1.66769 3.34996 1.31141L3.15004 1.30578C3.13664 1.78153 3.53672 2.1637 3.99857 2.1703L4.00143 1.97032ZM3.34996 1.30574C3.33996 0.955624 3.6424 0.658594 4 0.658594V0.458593C3.53729 0.458593 3.13661 0.841251 3.15004 1.31145L3.34996 1.30574ZM4 0.658594C4.36159 0.658594 4.65505 0.954143 4.65001 1.30717L4.84999 1.31002C4.85667 0.842732 4.47044 0.458593 4 0.458593V0.658594ZM4.65001 1.31C4.65507 1.66916 4.36104 1.96522 3.99859 1.97032L4.00141 2.1703C4.47099 2.16369 4.85665 1.78006 4.84999 1.30719L4.65001 1.31ZM7.04688 2.07031L7.04545 2.17034L7.04828 2.1703L7.04688 2.07031ZM6.29688 1.30859L6.397 1.31141L6.39683 1.30574L6.29688 1.30859ZM7.79688 1.30859L7.69685 1.30717L7.69689 1.31L7.79688 1.30859ZM7.0483 1.97032C6.68984 1.9652 6.3868 1.66769 6.39684 1.31141L6.19691 1.30578C6.18351 1.78153 6.5836 2.1637 7.04545 2.1703L7.0483 1.97032ZM6.39683 1.30574C6.38683 0.955624 6.68928 0.658594 7.04688 0.658594V0.458593C6.58416 0.458593 6.18348 0.841251 6.19692 1.31145L6.39683 1.30574ZM7.04688 0.658594C7.40846 0.658594 7.70193 0.954143 7.69689 1.30717L7.89686 1.31002C7.90354 0.842732 7.51732 0.458593 7.04688 0.458593V0.658594ZM7.69689 1.31C7.70194 1.66916 7.40791 1.96522 7.04547 1.97032L7.04828 2.1703C7.51787 2.16369 7.90353 1.78006 7.89686 1.30719L7.69689 1.31Z" fill="white" mask="url(#path-1-outside-1_1916_38610)"/>
</svg>
