<svg width="19" height="17" viewBox="0 0 19 17" fill="none" xmlns="http://www.w3.org/2000/svg">
<path d="M16.8034 15.0931L15.3164 13.7345M8.99626 14.4138C9.92387 14.4138 10.8424 14.2469 11.6994 13.9225C12.5564 13.5982 13.3351 13.1229 13.991 12.5236C14.6469 11.9243 15.1672 11.2129 15.5222 10.4299C15.8772 9.64697 16.0599 8.80779 16.0599 7.96031C16.0599 7.11282 15.8772 6.27364 15.5222 5.49067C15.1672 4.7077 14.6469 3.99627 13.991 3.39701C13.3351 2.79775 12.5564 2.32239 11.6994 1.99808C10.8424 1.67376 9.92387 1.50684 8.99626 1.50684C7.12287 1.50684 5.3262 2.18675 4.00151 3.39701C2.67682 4.60727 1.93262 6.24874 1.93262 7.96031C1.93262 9.67187 2.67682 11.3133 4.00151 12.5236C5.3262 13.7339 7.12287 14.4138 8.99626 14.4138V14.4138Z" stroke="white" stroke-opacity="0.96" stroke-width="0.836484" stroke-linecap="round" stroke-linejoin="round"/>
</svg>
